{
  "accessors": [
    {
      "bufferView": 2,
      "componentType": 5126,
      "count": 1730,
      "max": [
        1.0967804193496704,
        1.412022352218628,
        1.4993963241577148
      ],
      "min": [
        -1.5279463529586792,
        -0.6368093490600586,
        -1.5118064880371094
      ],
      "type": "VEC3"
    },
    {
      "bufferView": 2,
      "byteOffset": 20760,
      "componentType": 5126,
      "count": 1730,
      "max": [
        0.9993536472320557,
        0.9996861815452576,
        0.9978658556938171
      ],
      "min": [
        -0.9994704723358154,
        -0.9999761581420898,
        -0.9978658556938171
      ],
      "type": "VEC3"
    },
    {
      "bufferView": 1,
      "componentType": 5126,
      "count": 1730,
      "max": [
        0.0,
        0.0
      ],
      "min": [
        0.0,
        0.0
      ],
      "type": "VEC2"
    },
    {
      "bufferView": 0,
      "componentType": 5125,
      "count": 10368,
      "type": "SCALAR"
    },
    {
      "bufferView": 2,
      "byteOffset": 41520,
      "componentType": 5126,
      "count": 1191,
      "max": [
        1.1008285284042358,
        1.4134130477905273,
        1.5011160373687744
      ],
      "min": [
        -1.5303373336791992,
        -0.5481866002082825,
        -1.5142827033996582
      ],
      "type": "VEC3"
    },
    {
      "bufferView": 2,
      "byteOffset": 55812,
      "componentType": 5126,
      "count": 1191,
      "max": [
        0.9994705319404602,
        0.9999761581420898,
        0.9978659749031067
      ],
      "min": [
        -0.9993535876274109,
        -0.8885387182235718,
        -0.9978657364845276
      ],
      "type": "VEC3"
    },
    {
      "bufferView": 1,
      "byteOffset": 13840,
      "componentType": 5126,
      "count": 1191,
      "max": [
        0.0,
        0.0
      ],
      "min": [
        0.0,
        0.0
      ],
      "type": "VEC2"
    },
    {
      "bufferView": 0,
      "byteOffset": 41472,
      "componentType": 5125,
      "count": 6333,
      "type": "SCALAR"
    },
    {
      "bufferView": 2,
      "byteOffset": 70104,
      "componentType": 5126,
      "count": 2050,
      "max": [
        0.8485044240951538,
        0.3285609185695648,
        0.9836118221282959
      ],
      "min": [
        -0.9820116758346558,
        -0.8475342988967896,
        -0.9731383323669434
      ],
      "type": "VEC3"
    },
    {
      "bufferView": 2,
      "byteOffset": 94704,
      "componentType": 5126,
      "count": 2050,
      "max": [
        0.9999917149543762,
        1.0,
        0.9999905824661255
      ],
      "min": [
        -0.9999918341636658,
        -1.0,
        -0.9999905824661255
      ],
      "type": "VEC3"
    },
    {
      "bufferView": 1,
      "byteOffset": 23368,
      "componentType": 5126,
      "count": 2050,
      "max": [
        0.0,
        0.0
      ],
      "min": [
        0.0,
        0.0
      ],
      "type": "VEC2"
    },
    {
      "bufferView": 0,
      "byteOffset": 66804,
      "componentType": 5125,
      "count": 12288,
      "type": "SCALAR"
    },
    {
      "bufferView": 2,
      "byteOffset": 119304,
      "componentType": 5126,
      "count": 768,
      "max": [
        0.827195942401886,
        -0.25884032249450684,
        0.31453895568847656
      ],
      "min": [
        0.7461968660354614,
        -0.552160382270813,
        -0.3145389258861542
      ],
      "type": "VEC3"
    },
    {
      "bufferView": 2,
      "byteOffset": 128520,
      "componentType": 5126,
      "count": 768,
      "max": [
        0.9988332390785217,
        0.9576525092124939,
        0.9942417740821838
      ],
      "min": [
        -0.8136084675788879,
        -0.9940784573554993,
        -0.9942434430122375
      ],
      "type": "VEC3"
    },
    {
      "bufferView": 1,
      "byteOffset": 39768,
      "componentType": 5126,
      "count": 768,
      "max": [
        0.0,
        0.0
      ],
      "min": [
        0.0,
        0.0
      ],
      "type": "VEC2"
    },
    {
      "bufferView": 0,
      "byteOffset": 115956,
      "componentType": 5125,
      "count": 4584,
      "type": "SCALAR"
    }
  ],
  "asset": {
    "extras": {
      "author": "Derk3DStuff (https://sketchfab.com/Derk3DStuff)",
      "license": "CC-BY-4.0 (http://creativecommons.org/licenses/by/4.0/)",
      "source": "https://sketchfab.com/3d-models/1-up-mushroom-blender-104cd30be0db4dcc8c94539628ffdec1",
      "title": "1- Up Mushroom (Blender)"
    },
    "generator": "Sketchfab-14.35.0",
    "version": "2.0"
  },
  "bufferViews": [
    {
      "buffer": 0,
      "byteLength": 134292,
      "name": "floatBufferViews",
      "target": 34963
    },
    {
      "buffer": 0,
      "byteLength": 45912,
      "byteOffset": 134292,
      "byteStride": 8,
      "name": "floatBufferViews",
      "target": 34962
    },
    {
      "buffer": 0,
      "byteLength": 137736,
      "byteOffset": 180204,
      "byteStride": 12,
      "name": "floatBufferViews",
      "target": 34962
    }
  ],
  "buffers": [
    {
      "byteLength": 317940,
      "uri": "scene.bin"
    }
  ],
  "materials": [
    {
      "doubleSided": true,
      "name": "Material.005",
      "pbrMetallicRoughness": {
        "baseColorFactor": [
          0.0692191,
          0.325987,
          0.0637186,
          1.0
        ],
        "metallicFactor": 0.4
      }
    },
    {
      "doubleSided": true,
      "name": "Material.004",
      "pbrMetallicRoughness": {
        "baseColorFactor": [
          0.8,
          0.8,
          0.8,
          1.0
        ],
        "metallicFactor": 0.4
      }
    },
    {
      "doubleSided": true,
      "name": "Material.002",
      "pbrMetallicRoughness": {
        "baseColorFactor": [
          1.0,
          0.69912,
          0.340181,
          1.0
        ],
        "metallicFactor": 0.4
      }
    },
    {
      "doubleSided": true,
      "name": "Material.003",
      "pbrMetallicRoughness": {
        "baseColorFactor": [
          0.0,
          0.0,
          0.0,
          1.0
        ],
        "metallicFactor": 0.4,
        "roughnessFactor": 0.2
      }
    }
  ],
  "meshes": [
    {
      "name": "Object_0",
      "primitives": [
        {
          "attributes": {
            "NORMAL": 1,
            "POSITION": 0,
            "TEXCOORD_0": 2
          },
          "indices": 3,
          "material": 0,
          "mode": 4
        }
      ]
    },
    {
      "name": "Object_1",
      "primitives": [
        {
          "attributes": {
            "NORMAL": 5,
            "POSITION": 4,
            "TEXCOORD_0": 6
          },
          "indices": 7,
          "material": 1,
          "mode": 4
        }
      ]
    },
    {
      "name": "Object_2",
      "primitives": [
        {
          "attributes": {
            "NORMAL": 9,
            "POSITION": 8,
            "TEXCOORD_0": 10
          },
          "indices": 11,
          "material": 2,
          "mode": 4
        }
      ]
    },
    {
      "name": "Object_3",
      "primitives": [
        {
          "attributes": {
            "NORMAL": 13,
            "POSITION": 12,
            "TEXCOORD_0": 14
          },
          "indices": 15,
          "material": 3,
          "mode": 4
        }
      ]
    }
  ],
  "nodes": [
    {
      "children": [
        1
      ],
      "matrix": [
        2.220446049250313e-16,
        -2.220446049250313e-16,
        1.0,
        0.0,
        1.0,
        4.930380657631324e-32,
        -2.220446049250313e-16,
        0.0,
        0.0,
        1.0,
        2.220446049250313e-16,
        0.0,
        0.0,
        0.0,
        0.0,
        1.0
      ],
      "name": "Sketchfab_model"
    },
    {
      "children": [
        2
      ],
      "name": "root"
    },
    {
      "children": [
        3
      ],
      "matrix": [
        1.0,
        0.0,
        0.0,
        0.0,
        0.0,
        2.220446049250313e-16,
        1.0,
        0.0,
        0.0,
        -1.0,
        2.220446049250313e-16,
        0.0,
        0.0,
        0.0,
        0.0,
        1.0
      ],
      "name": "GLTF_SceneRootNode"
    },
    {
      "children": [
        4,
        5,
        6,
        7
      ],
      "matrix": [
        1.3310883045196533,
        0.0,
        0.0,
        0.0,
        0.0,
        1.5338772535324097,
        0.0,
        0.0,
        0.0,
        0.0,
        1.0882266759872437,
        0.0,
        0.0,
        0.0,
        0.0,
        1.0
      ],
      "name": "1-up Fungo_0"
    },
    {
      "mesh": 0,
      "name": "Object_4"
    },
    {
      "mesh": 1,
      "name": "Object_5"
    },
    {
      "mesh": 2,
      "name": "Object_6"
    },
    {
      "mesh": 3,
      "name": "Object_7"
    }
  ],
  "scene": 0,
  "scenes": [
    {
      "name": "Sketchfab_Scene",
      "nodes": [
        0
      ]
    }
  ]
}
