{
  "accessors": [
    {
      "bufferView": 2,
      "componentType": 5126,
      "count": 32,
      "max": [
        0.9352997541427612,
        0.6177632212638855,
        0.9708232879638672
      ],
      "min": [
        -0.9352997541427612,
        -0.6177632212638855,
        -0.9708232879638672
      ],
      "type": "VEC3"
    },
    {
      "bufferView": 2,
      "byteOffset": 384,
      "componentType": 5126,
      "count": 32,
      "max": [
        1.0,
        1.0,
        1.0
      ],
      "min": [
        -1.0,
        0.0,
        -1.0
      ],
      "type": "VEC3"
    },
    {
      "bufferView": 1,
      "componentType": 5126,
      "count": 32,
      "max": [
        0.5416666269302368,
        1.0
      ],
      "min": [
        0.4583333134651184,
        0.0
      ],
      "type": "VEC2"
    },
    {
      "bufferView": 0,
      "componentType": 5125,
      "count": 60,
      "type": "SCALAR"
    },
    {
      "bufferView": 2,
      "byteOffset": 768,
      "componentType": 5126,
      "count": 660,
      "max": [
        1.0,
        1.0,
        1.0
      ],
      "min": [
        -1.0,
        -1.0,
        -1.0
      ],
      "type": "VEC3"
    },
    {
      "bufferView": 2,
      "byteOffset": 8688,
      "componentType": 5126,
      "count": 660,
      "max": [
        1.0,
        1.0,
        1.0
      ],
      "min": [
        -1.0,
        -1.0,
        -1.0
      ],
      "type": "VEC3"
    },
    {
      "bufferView": 1,
      "byteOffset": 256,
      "componentType": 5126,
      "count": 660,
      "max": [
        0.8723355531692505,
        1.0011290311813354
      ],
      "min": [
        0.125,
        0.0
      ],
      "type": "VEC2"
    },
    {
      "bufferView": 0,
      "byteOffset": 240,
      "componentType": 5125,
      "count": 972,
      "type": "SCALAR"
    },
    {
      "bufferView": 2,
      "byteOffset": 16608,
      "componentType": 5126,
      "count": 172,
      "max": [
        0.8642999529838562,
        0.8676850199699402,
        1.0
      ],
      "min": [
        -0.8643004894256592,
        -0.8676850199699402,
        -1.0
      ],
      "type": "VEC3"
    },
    {
      "bufferView": 2,
      "byteOffset": 18672,
      "componentType": 5126,
      "count": 172,
      "max": [
        0.6908143162727356,
        0.6908144950866699,
        1.0
      ],
      "min": [
        -0.6908143162727356,
        -1.0,
        -1.0
      ],
      "type": "VEC3"
    },
    {
      "bufferView": 1,
      "byteOffset": 5536,
      "componentType": 5126,
      "count": 172,
      "max": [
        0.5961534380912781,
        0.9909635782241821
      ],
      "min": [
        0.4038466513156891,
        0.25903651118278503
      ],
      "type": "VEC2"
    },
    {
      "bufferView": 0,
      "byteOffset": 4128,
      "componentType": 5125,
      "count": 276,
      "type": "SCALAR"
    },
    {
      "bufferView": 2,
      "byteOffset": 20736,
      "componentType": 5126,
      "count": 3915,
      "max": [
        2.4916491508483887,
        1.252332329750061,
        2.464799404144287
      ],
      "min": [
        -2.4888358116149902,
        -1.2445034980773926,
        -2.464799404144287
      ],
      "type": "VEC3"
    },
    {
      "bufferView": 2,
      "byteOffset": 67716,
      "componentType": 5126,
      "count": 3915,
      "max": [
        1.0,
        1.0,
        1.0
      ],
      "min": [
        -1.0,
        -1.0,
        -1.0
      ],
      "type": "VEC3"
    },
    {
      "bufferView": 1,
      "byteOffset": 6912,
      "componentType": 5126,
      "count": 3915,
      "max": [
        1.0002636909484863,
        1.0
      ],
      "min": [
        0.0,
        -0.00135064497590065
      ],
      "type": "VEC2"
    },
    {
      "bufferView": 0,
      "byteOffset": 5232,
      "componentType": 5125,
      "count": 6510,
      "type": "SCALAR"
    }
  ],
  "asset": {
    "extras": {
      "author": "RebelliousRobot (https://sketchfab.com/RebelliousRobot)",
      "license": "CC-BY-4.0 (http://creativecommons.org/licenses/by/4.0/)",
      "source": "https://sketchfab.com/3d-models/pow-block-a332bf9a3e5344728c5003df54ec6208",
      "title": "Pow Block"
    },
    "generator": "Sketchfab-12.65.0",
    "version": "2.0"
  },
  "bufferViews": [
    {
      "buffer": 0,
      "byteLength": 31272,
      "name": "floatBufferViews",
      "target": 34963
    },
    {
      "buffer": 0,
      "byteLength": 38232,
      "byteOffset": 31272,
      "byteStride": 8,
      "name": "floatBufferViews",
      "target": 34962
    },
    {
      "buffer": 0,
      "byteLength": 114696,
      "byteOffset": 69504,
      "byteStride": 12,
      "name": "floatBufferViews",
      "target": 34962
    }
  ],
  "buffers": [
    {
      "byteLength": 184200,
      "uri": "scene.bin"
    }
  ],
  "materials": [
    {
      "doubleSided": true,
      "name": "Material",
      "pbrMetallicRoughness": {
        "baseColorFactor": [
          0.0,
          0.0,
          0.0,
          1.0
        ],
        "metallicFactor": 0.0,
        "roughnessFactor": 0.4
      }
    },
    {
      "doubleSided": true,
      "name": "Material.001",
      "pbrMetallicRoughness": {
        "baseColorFactor": [
          0.00953386,
          0.8,
          0.772547,
          1.0
        ],
        "metallicFactor": 0.0,
        "roughnessFactor": 0.5
      }
    },
    {
      "doubleSided": true,
      "name": "Material.002",
      "pbrMetallicRoughness": {
        "baseColorFactor": [
          0.0,
          0.000422907,
          0.8,
          1.0
        ],
        "metallicFactor": 0.0,
        "roughnessFactor": 0.5
      }
    },
    {
      "doubleSided": true,
      "name": "Material.003",
      "pbrMetallicRoughness": {
        "baseColorFactor": [
          0.871356,
          0.871356,
          0.871356,
          1.0
        ],
        "metallicFactor": 0.0,
        "roughnessFactor": 0.5
      }
    }
  ],
  "meshes": [
    {
      "name": "Object_0",
      "primitives": [
        {
          "attributes": {
            "NORMAL": 1,
            "POSITION": 0,
            "TEXCOORD_0": 2
          },
          "indices": 3,
          "material": 0,
          "mode": 4
        }
      ]
    },
    {
      "name": "Object_1",
      "primitives": [
        {
          "attributes": {
            "NORMAL": 5,
            "POSITION": 4,
            "TEXCOORD_0": 6
          },
          "indices": 7,
          "material": 1,
          "mode": 4
        }
      ]
    },
    {
      "name": "Object_2",
      "primitives": [
        {
          "attributes": {
            "NORMAL": 9,
            "POSITION": 8,
            "TEXCOORD_0": 10
          },
          "indices": 11,
          "material": 2,
          "mode": 4
        }
      ]
    },
    {
      "name": "Object_3",
      "primitives": [
        {
          "attributes": {
            "NORMAL": 13,
            "POSITION": 12,
            "TEXCOORD_0": 14
          },
          "indices": 15,
          "material": 3,
          "mode": 4
        }
      ]
    }
  ],
  "nodes": [
    {
      "children": [
        1
      ],
      "matrix": [
        1.0,
        0.0,
        0.0,
        0.0,
        0.0,
        2.220446049250313e-16,
        -1.0,
        0.0,
        0.0,
        1.0,
        2.220446049250313e-16,
        0.0,
        0.0,
        0.0,
        0.0,
        1.0
      ],
      "name": "Sketchfab_model"
    },
    {
      "children": [
        2
      ],
      "name": "root"
    },
    {
      "children": [
        3,
        7
      ],
      "matrix": [
        1.0,
        0.0,
        0.0,
        0.0,
        0.0,
        2.220446049250313e-16,
        1.0,
        0.0,
        0.0,
        -1.0,
        2.220446049250313e-16,
        0.0,
        0.0,
        0.0,
        0.0,
        1.0
      ],
      "name": "GLTF_SceneRootNode"
    },
    {
      "children": [
        4,
        5,
        6
      ],
      "matrix": [
        2.505004405975342,
        0.0,
        0.0,
        0.0,
        0.0,
        2.505004405975342,
        0.0,
        0.0,
        0.0,
        0.0,
        2.505004405975342,
        0.0,
        0.0,
        3.1965713500976563,
        0.0,
        1.0
      ],
      "name": "Cube_0"
    },
    {
      "mesh": 0,
      "name": "Object_4"
    },
    {
      "mesh": 1,
      "name": "Object_5"
    },
    {
      "mesh": 2,
      "name": "Object_6"
    },
    {
      "children": [
        8
      ],
      "matrix": [
        1.0,
        0.0,
        0.0,
        0.0,
        0.0,
        1.0,
        0.0,
        0.0,
        0.0,
        0.0,
        1.0,
        0.0,
        0.0,
        3.1965713500976563,
        0.0,
        1.0
      ],
      "name": "P_3"
    },
    {
      "mesh": 3,
      "name": "Object_8"
    }
  ],
  "scene": 0,
  "scenes": [
    {
      "name": "Sketchfab_Scene",
      "nodes": [
        0
      ]
    }
  ]
}
