{
  "accessors": [
    {
      "bufferView": 2,
      "componentType": 5126,
      "count": 644,
      "max": [
        1.0,
        1.0,
        1.0
      ],
      "min": [
        -1.0,
        -1.0,
        -1.0
      ],
      "type": "VEC3"
    },
    {
      "bufferView": 2,
      "byteOffset": 7728,
      "componentType": 5126,
      "count": 644,
      "max": [
        1.0,
        1.0,
        1.0
      ],
      "min": [
        -1.0,
        -1.0,
        -1.0
      ],
      "type": "VEC3"
    },
    {
      "bufferView": 1,
      "componentType": 5126,
      "count": 644,
      "max": [
        0.875,
        1.0
      ],
      "min": [
        0.1249999850988388,
        0.003976928070187569
      ],
      "type": "VEC2"
    },
    {
      "bufferView": 0,
      "componentType": 5125,
      "count": 1308,
      "type": "SCALAR"
    },
    {
      "bufferView": 2,
      "byteOffset": 15456,
      "componentType": 5126,
      "count": 4400,
      "max": [
        1.0984445810317993,
        1.0984445810317993,
        1.0984445810317993
      ],
      "min": [
        -1.0984445810317993,
        -1.0984445810317993,
        -1.0984445810317993
      ],
      "type": "VEC3"
    },
    {
      "bufferView": 2,
      "byteOffset": 68256,
      "componentType": 5126,
      "count": 4400,
      "max": [
        1.0,
        1.0,
        1.0
      ],
      "min": [
        -1.0,
        -1.0,
        -1.0
      ],
      "type": "VEC3"
    },
    {
      "bufferView": 1,
      "byteOffset": 5152,
      "componentType": 5126,
      "count": 4400,
      "max": [
        0.875,
        1.0
      ],
      "min": [
        0.1249999850988388,
        0.0
      ],
      "type": "VEC2"
    },
    {
      "bufferView": 0,
      "byteOffset": 5232,
      "componentType": 5125,
      "count": 15288,
      "type": "SCALAR"
    }
  ],
  "asset": {
    "extras": {
      "author": "aidanp (https://sketchfab.com/bionic_leaf)",
      "license": "CC-BY-4.0 (http://creativecommons.org/licenses/by/4.0/)",
      "source": "https://sketchfab.com/3d-models/brick-block-super-mario-bros-85d948fcbbf8476ebe0d79e1590ee032",
      "title": "Brick Block (Super Mario Bros.)"
    },
    "generator": "Sketchfab-12.68.0",
    "version": "2.0"
  },
  "bufferViews": [
    {
      "buffer": 0,
      "byteLength": 66384,
      "name": "floatBufferViews",
      "target": 34963
    },
    {
      "buffer": 0,
      "byteLength": 40352,
      "byteOffset": 66384,
      "byteStride": 8,
      "name": "floatBufferViews",
      "target": 34962
    },
    {
      "buffer": 0,
      "byteLength": 121056,
      "byteOffset": 106736,
      "byteStride": 12,
      "name": "floatBufferViews",
      "target": 34962
    }
  ],
  "buffers": [
    {
      "byteLength": 227792,
      "uri": "scene.bin"
    }
  ],
  "materials": [
    {
      "doubleSided": true,
      "name": "Interior",
      "pbrMetallicRoughness": {
        "baseColorFactor": [
          0.0,
          0.0,
          0.0,
          1.0
        ],
        "metallicFactor": 0.0
      }
    },
    {
      "doubleSided": true,
      "name": "Clay",
      "pbrMetallicRoughness": {
        "baseColorFactor": [
          0.325011,
          0.09302389999999998,
          0.03143859999999998,
          1.0
        ],
        "metallicFactor": 0.0,
        "roughnessFactor": 0.6
      }
    }
  ],
  "meshes": [
    {
      "name": "Object_0",
      "primitives": [
        {
          "attributes": {
            "NORMAL": 1,
            "POSITION": 0,
            "TEXCOORD_0": 2
          },
          "indices": 3,
          "material": 0,
          "mode": 4
        }
      ]
    },
    {
      "name": "Object_1",
      "primitives": [
        {
          "attributes": {
            "NORMAL": 5,
            "POSITION": 4,
            "TEXCOORD_0": 6
          },
          "indices": 7,
          "material": 1,
          "mode": 4
        }
      ]
    }
  ],
  "nodes": [
    {
      "children": [
        1
      ],
      "matrix": [
        0.25981980562210083,
        -3.5344253055674267e-06,
        -1.2937487037187223e-17,
        0.0,
        -1.2936133994173232e-17,
        9.947385871875274e-17,
        -0.25981980562210083,
        0.0,
        3.5344253055674267e-06,
        0.25981980562210083,
        9.947368334574147e-17,
        0.0,
        -3.1492195518012522e-09,
        3.149262184365398e-09,
        -1.1104940681755111e-16,
        1.0
      ],
      "name": "Sketchfab_model"
    },
    {
      "children": [
        2
      ],
      "name": "root"
    },
    {
      "children": [
        3
      ],
      "matrix": [
        1.0,
        0.0,
        0.0,
        0.0,
        0.0,
        2.220446049250313e-16,
        1.0,
        0.0,
        0.0,
        -1.0,
        2.220446049250313e-16,
        0.0,
        0.0,
        0.0,
        0.0,
        1.0
      ],
      "name": "GLTF_SceneRootNode"
    },
    {
      "children": [
        4,
        5
      ],
      "name": "BrickBlock_0"
    },
    {
      "mesh": 0,
      "name": "Object_4"
    },
    {
      "mesh": 1,
      "name": "Object_5"
    }
  ],
  "scene": 0,
  "scenes": [
    {
      "name": "Sketchfab_Scene",
      "nodes": [
        0
      ]
    }
  ]
}
