{
  "accessors": [
    {
      "bufferView": 2,
      "componentType": 5126,
      "count": 3574,
      "max": [
        1.1880158185958862,
        1.2528998851776123,
        1.1880159378051758
      ],
      "min": [
        -1.1880159378051758,
        -1.681220531463623,
        -1.1880158185958862
      ],
      "type": "VEC3"
    },
    {
      "bufferView": 2,
      "byteOffset": 42888,
      "componentType": 5126,
      "count": 3574,
      "max": [
        0.9999947547912598,
        1.0,
        0.9999947547912598
      ],
      "min": [
        -0.9999947547912598,
        -1.0,
        -0.9999947547912598
      ],
      "type": "VEC3"
    },
    {
      "bufferView": 1,
      "componentType": 5126,
      "count": 3574,
      "max": [
        0.5670364499092102,
        1.000000238418579
      ],
      "min": [
        0.1250000149011612,
        0.0
      ],
      "type": "VEC2"
    },
    {
      "bufferView": 0,
      "componentType": 5125,
      "count": 20352,
      "type": "SCALAR"
    },
    {
      "bufferView": 2,
      "byteOffset": 85776,
      "componentType": 5126,
      "count": 1504,
      "max": [
        0.7561618089675903,
        1.8864011764526367,
        0.7561619281768799
      ],
      "min": [
        -0.7561618685722351,
        1.2476829290390015,
        -0.7561618685722351
      ],
      "type": "VEC3"
    },
    {
      "bufferView": 2,
      "byteOffset": 103824,
      "componentType": 5126,
      "count": 1504,
      "max": [
        0.961378812789917,
        1.0,
        0.96137934923172
      ],
      "min": [
        -0.9613789916038513,
        -1.0,
        -0.9613791108131409
      ],
      "type": "VEC3"
    },
    {
      "bufferView": 1,
      "byteOffset": 28592,
      "componentType": 5126,
      "count": 1504,
      "max": [
        0.8750002384185791,
        1.000000238418579
      ],
      "min": [
        0.5652244091033936,
        0.0
      ],
      "type": "VEC2"
    },
    {
      "bufferView": 0,
      "byteOffset": 81408,
      "componentType": 5125,
      "count": 8064,
      "type": "SCALAR"
    },
    {
      "bufferView": 2,
      "byteOffset": 121872,
      "componentType": 5126,
      "count": 2048,
      "max": [
        0.18696126341819763,
        1.1265311241149902,
        0.38855576515197754
      ],
      "min": [
        -0.18539567291736603,
        -1.4408214092254639,
        -0.5153880715370178
      ],
      "type": "VEC3"
    },
    {
      "bufferView": 2,
      "byteOffset": 146448,
      "componentType": 5126,
      "count": 2048,
      "max": [
        0.9999528527259827,
        0.9685131311416626,
        0.9895376563072205
      ],
      "min": [
        -0.9999479055404663,
        -0.9135171175003052,
        -0.9813572764396667
      ],
      "type": "VEC3"
    },
    {
      "bufferView": 1,
      "byteOffset": 40624,
      "componentType": 5126,
      "count": 2048,
      "max": [
        0.0,
        0.0
      ],
      "min": [
        0.0,
        0.0
      ],
      "type": "VEC2"
    },
    {
      "bufferView": 0,
      "byteOffset": 113664,
      "componentType": 5125,
      "count": 3072,
      "type": "SCALAR"
    },
    {
      "bufferView": 2,
      "byteOffset": 171024,
      "componentType": 5126,
      "count": 2048,
      "max": [
        0.18696126341819763,
        1.1265311241149902,
        0.38855576515197754
      ],
      "min": [
        -0.18539567291736603,
        -1.4408214092254639,
        -0.5153880715370178
      ],
      "type": "VEC3"
    },
    {
      "bufferView": 2,
      "byteOffset": 195600,
      "componentType": 5126,
      "count": 2048,
      "max": [
        0.9999528527259827,
        0.9685131311416626,
        0.9895376563072205
      ],
      "min": [
        -0.9999479055404663,
        -0.9135171175003052,
        -0.9813572764396667
      ],
      "type": "VEC3"
    },
    {
      "bufferView": 1,
      "byteOffset": 57008,
      "componentType": 5126,
      "count": 2048,
      "max": [
        0.0,
        0.0
      ],
      "min": [
        0.0,
        0.0
      ],
      "type": "VEC2"
    },
    {
      "bufferView": 0,
      "byteOffset": 125952,
      "componentType": 5125,
      "count": 3072,
      "type": "SCALAR"
    },
    {
      "bufferView": 2,
      "byteOffset": 220176,
      "componentType": 5126,
      "count": 2048,
      "max": [
        0.18696126341819763,
        1.1265311241149902,
        0.38855576515197754
      ],
      "min": [
        -0.18539567291736603,
        -1.4408214092254639,
        -0.5153880715370178
      ],
      "type": "VEC3"
    },
    {
      "bufferView": 2,
      "byteOffset": 244752,
      "componentType": 5126,
      "count": 2048,
      "max": [
        0.9999528527259827,
        0.9685131311416626,
        0.9895376563072205
      ],
      "min": [
        -0.9999479055404663,
        -0.9135171175003052,
        -0.9813572764396667
      ],
      "type": "VEC3"
    },
    {
      "bufferView": 1,
      "byteOffset": 73392,
      "componentType": 5126,
      "count": 2048,
      "max": [
        0.0,
        0.0
      ],
      "min": [
        0.0,
        0.0
      ],
      "type": "VEC2"
    },
    {
      "bufferView": 0,
      "byteOffset": 138240,
      "componentType": 5125,
      "count": 3072,
      "type": "SCALAR"
    },
    {
      "bufferView": 2,
      "byteOffset": 269328,
      "componentType": 5126,
      "count": 1984,
      "max": [
        0.5640934109687805,
        0.09464888274669647,
        0.5640932321548462
      ],
      "min": [
        -0.5640930533409119,
        -0.09464888274669647,
        -0.5640935897827148
      ],
      "type": "VEC3"
    },
    {
      "bufferView": 2,
      "byteOffset": 293136,
      "componentType": 5126,
      "count": 1984,
      "max": [
        0.8593093752861023,
        0.9998622536659241,
        0.8593120574951172
      ],
      "min": [
        -0.8593130111694336,
        -0.9998622536659241,
        -0.8593083620071411
      ],
      "type": "VEC3"
    },
    {
      "bufferView": 1,
      "byteOffset": 89776,
      "componentType": 5126,
      "count": 1984,
      "max": [
        1.0,
        1.0
      ],
      "min": [
        0.0,
        0.0
      ],
      "type": "VEC2"
    },
    {
      "bufferView": 0,
      "byteOffset": 150528,
      "componentType": 5125,
      "count": 2880,
      "type": "SCALAR"
    },
    {
      "bufferView": 2,
      "byteOffset": 316944,
      "componentType": 5126,
      "count": 1536,
      "max": [
        0.7411729097366333,
        -1.571278691291809,
        0.7501518130302429
      ],
      "min": [
        -0.7417717576026917,
        -2.026653289794922,
        -0.732792854309082
      ],
      "type": "VEC3"
    },
    {
      "bufferView": 2,
      "byteOffset": 335376,
      "componentType": 5126,
      "count": 1536,
      "max": [
        0.9976100325584412,
        0.9911376237869263,
        0.9969932436943054
      ],
      "min": [
        -0.9982317686080933,
        -0.9999985098838806,
        -0.9883787035942078
      ],
      "type": "VEC3"
    },
    {
      "bufferView": 1,
      "byteOffset": 105648,
      "componentType": 5126,
      "count": 1536,
      "max": [
        0.0,
        0.0
      ],
      "min": [
        0.0,
        0.0
      ],
      "type": "VEC2"
    },
    {
      "bufferView": 0,
      "byteOffset": 162048,
      "componentType": 5125,
      "count": 9216,
      "type": "SCALAR"
    },
    {
      "bufferView": 2,
      "byteOffset": 353808,
      "componentType": 5126,
      "count": 193,
      "max": [
        0.9389073252677917,
        0.9116382002830505,
        0.938907265663147
      ],
      "min": [
        -0.9389073252677917,
        -1.4048514366149902,
        -0.9389073252677917
      ],
      "type": "VEC3"
    },
    {
      "bufferView": 2,
      "byteOffset": 356124,
      "componentType": 5126,
      "count": 193,
      "max": [
        0.9994869828224182,
        1.0,
        0.9994869828224182
      ],
      "min": [
        -0.9994869828224182,
        -1.0,
        -0.9994869828224182
      ],
      "type": "VEC3"
    },
    {
      "bufferView": 1,
      "byteOffset": 117936,
      "componentType": 5126,
      "count": 193,
      "max": [
        0.8750001192092896,
        1.0000001192092896
      ],
      "min": [
        0.1250000149011612,
        0.0
      ],
      "type": "VEC2"
    },
    {
      "bufferView": 0,
      "byteOffset": 198912,
      "componentType": 5125,
      "count": 960,
      "type": "SCALAR"
    },
    {
      "bufferView": 2,
      "byteOffset": 358440,
      "componentType": 5126,
      "count": 495,
      "max": [
        0.6732546091079712,
        0.13545647263526917,
        0.6732544898986816
      ],
      "min": [
        -0.6732544302940369,
        -0.09852632135152817,
        -0.673254668712616
      ],
      "type": "VEC3"
    },
    {
      "bufferView": 2,
      "byteOffset": 364380,
      "componentType": 5126,
      "count": 495,
      "max": [
        1.0,
        0.977867841720581,
        1.0
      ],
      "min": [
        -1.0,
        -0.9778677225112915,
        -1.0
      ],
      "type": "VEC3"
    },
    {
      "bufferView": 1,
      "byteOffset": 119480,
      "componentType": 5126,
      "count": 495,
      "max": [
        1.0,
        1.0
      ],
      "min": [
        0.0,
        0.0
      ],
      "type": "VEC2"
    },
    {
      "bufferView": 0,
      "byteOffset": 202752,
      "componentType": 5125,
      "count": 2688,
      "type": "SCALAR"
    }
  ],
  "asset": {
    "extras": {
      "author": "Kenniuuu (https://sketchfab.com/keniu)",
      "license": "CC-BY-4.0 (http://creativecommons.org/licenses/by/4.0/)",
      "source": "https://sketchfab.com/3d-models/rocket-lowpoly-d8b91b9319384cfcb915da068c219148",
      "title": "Rocket - Lowpoly"
    },
    "generator": "Sketchfab-15.30.0",
    "version": "2.0"
  },
  "bufferViews": [
    {
      "buffer": 0,
      "byteLength": 213504,
      "name": "floatBufferViews",
      "target": 34963
    },
    {
      "buffer": 0,
      "byteLength": 123440,
      "byteOffset": 213504,
      "byteStride": 8,
      "name": "floatBufferViews",
      "target": 34962
    },
    {
      "buffer": 0,
      "byteLength": 370320,
      "byteOffset": 336944,
      "byteStride": 12,
      "name": "floatBufferViews",
      "target": 34962
    }
  ],
  "buffers": [
    {
      "byteLength": 707264,
      "uri": "scene.bin"
    }
  ],
  "extensionsUsed": [
    "KHR_materials_specular"
  ],
  "materials": [
    {
      "doubleSided": true,
      "name": "white",
      "pbrMetallicRoughness": {
        "baseColorFactor": [
          0.38317,
          0.38317,
          0.38317,
          1.0
        ],
        "metallicFactor": 0.0,
        "roughnessFactor": 0.5
      }
    },
    {
      "doubleSided": true,
      "name": "Merah",
      "pbrMetallicRoughness": {
        "baseColorFactor": [
          0.503965,
          0.00145805,
          0.0,
          1.0
        ],
        "metallicFactor": 0.0,
        "roughnessFactor": 0.885321
      }
    },
    {
      "doubleSided": true,
      "name": "DarkBlue",
      "pbrMetallicRoughness": {
        "baseColorFactor": [
          0.00489054,
          0.0401778,
          0.456403,
          1.0
        ],
        "metallicFactor": 0.0,
        "roughnessFactor": 0.353211
      }
    },
    {
      "doubleSided": true,
      "name": "Material.001",
      "pbrMetallicRoughness": {
        "baseColorFactor": [
          0.8,
          0.8,
          0.8,
          1.0
        ],
        "roughnessFactor": 0.5
      }
    },
    {
      "doubleSided": true,
      "emissiveFactor": [
        0.5658420444709926,
        0.3535498774853409,
        0.04315568352208311
      ],
      "extensions": {
        "KHR_materials_specular": {
          "specularColorFactor": [
            1.0,
            1.0,
            1.0
          ],
          "specularFactor": 0.4739062061903426
        }
      },
      "name": "Material.002"
    }
  ],
  "meshes": [
    {
      "name": "Object_0",
      "primitives": [
        {
          "attributes": {
            "NORMAL": 1,
            "POSITION": 0,
            "TEXCOORD_0": 2
          },
          "indices": 3,
          "material": 0,
          "mode": 4
        }
      ]
    },
    {
      "name": "Object_1",
      "primitives": [
        {
          "attributes": {
            "NORMAL": 5,
            "POSITION": 4,
            "TEXCOORD_0": 6
          },
          "indices": 7,
          "material": 1,
          "mode": 4
        }
      ]
    },
    {
      "name": "Object_2",
      "primitives": [
        {
          "attributes": {
            "NORMAL": 9,
            "POSITION": 8,
            "TEXCOORD_0": 10
          },
          "indices": 11,
          "material": 1,
          "mode": 4
        }
      ]
    },
    {
      "name": "Object_3",
      "primitives": [
        {
          "attributes": {
            "NORMAL": 13,
            "POSITION": 12,
            "TEXCOORD_0": 14
          },
          "indices": 15,
          "material": 1,
          "mode": 4
        }
      ]
    },
    {
      "name": "Object_4",
      "primitives": [
        {
          "attributes": {
            "NORMAL": 17,
            "POSITION": 16,
            "TEXCOORD_0": 18
          },
          "indices": 19,
          "material": 1,
          "mode": 4
        }
      ]
    },
    {
      "name": "Object_5",
      "primitives": [
        {
          "attributes": {
            "NORMAL": 21,
            "POSITION": 20,
            "TEXCOORD_0": 22
          },
          "indices": 23,
          "material": 2,
          "mode": 4
        }
      ]
    },
    {
      "name": "Object_6",
      "primitives": [
        {
          "attributes": {
            "NORMAL": 25,
            "POSITION": 24,
            "TEXCOORD_0": 26
          },
          "indices": 27,
          "material": 3,
          "mode": 4
        }
      ]
    },
    {
      "name": "Object_7",
      "primitives": [
        {
          "attributes": {
            "NORMAL": 29,
            "POSITION": 28,
            "TEXCOORD_0": 30
          },
          "indices": 31,
          "material": 4,
          "mode": 4
        }
      ]
    },
    {
      "name": "Object_8",
      "primitives": [
        {
          "attributes": {
            "NORMAL": 33,
            "POSITION": 32,
            "TEXCOORD_0": 34
          },
          "indices": 35,
          "material": 3,
          "mode": 4
        }
      ]
    }
  ],
  "nodes": [
    {
      "children": [
        1
      ],
      "matrix": [
        1.0,
        0.0,
        0.0,
        0.0,
        0.0,
        2.220446049250313e-16,
        -1.0,
        0.0,
        0.0,
        1.0,
        2.220446049250313e-16,
        0.0,
        0.0,
        0.0,
        0.0,
        1.0
      ],
      "name": "Sketchfab_model"
    },
    {
      "children": [
        2
      ],
      "name": "root"
    },
    {
      "children": [
        3,
        5,
        7,
        9,
        11,
        13,
        15,
        17,
        19
      ],
      "matrix": [
        1.0,
        0.0,
        0.0,
        0.0,
        0.0,
        2.220446049250313e-16,
        1.0,
        0.0,
        0.0,
        -1.0,
        2.220446049250313e-16,
        0.0,
        0.0,
        0.0,
        0.0,
        1.0
      ],
      "name": "GLTF_SceneRootNode"
    },
    {
      "children": [
        4
      ],
      "name": "Top_0"
    },
    {
      "mesh": 0,
      "name": "Object_4"
    },
    {
      "children": [
        6
      ],
      "name": "main_1"
    },
    {
      "mesh": 1,
      "name": "Object_6"
    },
    {
      "children": [
        8
      ],
      "matrix": [
        -0.9990930414132624,
        0.0,
        0.04258044856030969,
        0.0,
        0.0,
        1.0,
        0.0,
        0.0,
        -0.04258044856030969,
        0.0,
        -0.9990930414132624,
        0.0,
        -0.034484803676605225,
        -1.2809925079345703,
        -1.59641695022583,
        1.0
      ],
      "name": "Top.001_2"
    },
    {
      "mesh": 2,
      "name": "Object_8"
    },
    {
      "children": [
        10
      ],
      "matrix": [
        0.6049329713564919,
        -0.0,
        -0.7962763968408242,
        0.0,
        0.0,
        1.0,
        0.0,
        0.0,
        0.7962763968408242,
        0.0,
        0.6049329713564919,
        0.0,
        1.4222869873046875,
        -1.2809925079345703,
        0.7032541632652283,
        1.0
      ],
      "name": "Top.002_3"
    },
    {
      "mesh": 3,
      "name": "Object_10"
    },
    {
      "children": [
        12
      ],
      "matrix": [
        0.7268753430625702,
        0.0,
        0.6867694195635613,
        0.0,
        -0.0,
        1.0,
        0.0,
        0.0,
        -0.6867694195635613,
        -0.0,
        0.7268753430625702,
        0.0,
        -1.3670589923858643,
        -1.2809925079345703,
        0.8221331834793091,
        1.0
      ],
      "name": "Top.003_4"
    },
    {
      "mesh": 4,
      "name": "Object_12"
    },
    {
      "children": [
        14
      ],
      "matrix": [
        0.917931854724884,
        0.0,
        0.0,
        0.0,
        0.0,
        0.1251824040015715,
        0.9093560166805192,
        0.0,
        0.0,
        -0.9093560166805192,
        0.1251824040015715,
        0.0,
        0.0,
        0.38709914684295654,
        1.0814820528030396,
        1.0
      ],
      "name": "Sphere_5"
    },
    {
      "mesh": 5,
      "name": "Object_14"
    },
    {
      "children": [
        16
      ],
      "name": "Top.004_7"
    },
    {
      "mesh": 6,
      "name": "Object_16"
    },
    {
      "children": [
        18
      ],
      "matrix": [
        0.5141893625259399,
        0.0,
        0.0,
        0.0,
        0.0,
        0.5141893625259399,
        0.0,
        0.0,
        0.0,
        0.0,
        0.5141893625259399,
        0.0,
        0.0,
        -2.3120224475860596,
        0.0,
        1.0
      ],
      "name": "Cube_8"
    },
    {
      "mesh": 7,
      "name": "Object_18"
    },
    {
      "children": [
        20
      ],
      "matrix": [
        1.0219439268112183,
        0.0,
        0.0,
        0.0,
        0.0,
        0.139367011171288,
        1.012396519672213,
        0.0,
        0.0,
        -1.012396519672213,
        0.139367011171288,
        0.0,
        0.0,
        0.38709914684295654,
        1.0814820528030396,
        1.0
      ],
      "name": "Sphere.002_9"
    },
    {
      "mesh": 8,
      "name": "Object_20"
    }
  ],
  "scene": 0,
  "scenes": [
    {
      "name": "Sketchfab_Scene",
      "nodes": [
        0
      ]
    }
  ]
}
