{"asset":{"generator":"glTF-Transform v3.5.1","version":"2.0","extras":{"author":"Yutaka (https://sketchfab.com/yutaka.games)","license":"CC-BY-4.0 (http://creativecommons.org/licenses/by/4.0/)","source":"https://sketchfab.com/3d-models/toon-style-crystal-1f24004310a14ff29710ebc58a349371","title":"Toon Style - Crystal"}},"accessors":[{"type":"VEC3","componentType":5126,"count":56,"max":[54.09211349487305,286.03607177734375,49.952064514160156],"min":[-59.50912094116211,0,-49.37153625488281],"bufferView":0,"byteOffset":0},{"type":"VEC3","componentType":5126,"count":56,"bufferView":0,"byteOffset":12},{"type":"VEC4","componentType":5126,"count":56,"bufferView":0,"byteOffset":24},{"type":"VEC2","componentType":5126,"count":56,"bufferView":0,"byteOffset":40},{"type":"VEC2","componentType":5126,"count":56,"bufferView":0,"byteOffset":48},{"type":"VEC3","componentType":5126,"count":56,"max":[54.09211349487305,286.03607177734375,49.952064514160156],"min":[-59.50912094116211,0,-49.37153625488281],"bufferView":1,"byteOffset":0},{"type":"VEC3","componentType":5126,"count":56,"bufferView":1,"byteOffset":12},{"type":"VEC4","componentType":5126,"count":56,"bufferView":1,"byteOffset":24},{"type":"VEC2","componentType":5126,"count":56,"bufferView":1,"byteOffset":40},{"type":"VEC2","componentType":5126,"count":56,"bufferView":1,"byteOffset":48},{"type":"VEC3","componentType":5126,"count":56,"max":[54.09211349487305,286.03607177734375,49.952064514160156],"min":[-59.50912094116211,0,-49.37153625488281],"bufferView":2,"byteOffset":0},{"type":"VEC3","componentType":5126,"count":56,"bufferView":2,"byteOffset":12},{"type":"VEC4","componentType":5126,"count":56,"bufferView":2,"byteOffset":24},{"type":"VEC2","componentType":5126,"count":56,"bufferView":2,"byteOffset":40},{"type":"VEC2","componentType":5126,"count":56,"bufferView":2,"byteOffset":48},{"type":"VEC3","componentType":5126,"count":56,"max":[54.09211349487305,286.03607177734375,49.952064514160156],"min":[-59.50912094116211,0,-49.37153625488281],"bufferView":3,"byteOffset":0},{"type":"VEC3","componentType":5126,"count":56,"bufferView":3,"byteOffset":12},{"type":"VEC4","componentType":5126,"count":56,"bufferView":3,"byteOffset":24},{"type":"VEC2","componentType":5126,"count":56,"bufferView":3,"byteOffset":40},{"type":"VEC2","componentType":5126,"count":56,"bufferView":3,"byteOffset":48},{"type":"VEC3","componentType":5126,"count":56,"max":[54.09211349487305,286.03607177734375,49.952064514160156],"min":[-59.50912094116211,0,-49.37153625488281],"bufferView":4,"byteOffset":0},{"type":"VEC3","componentType":5126,"count":56,"bufferView":4,"byteOffset":12},{"type":"VEC4","componentType":5126,"count":56,"bufferView":4,"byteOffset":24},{"type":"VEC2","componentType":5126,"count":56,"bufferView":4,"byteOffset":40},{"type":"VEC2","componentType":5126,"count":56,"bufferView":4,"byteOffset":48},{"type":"SCALAR","componentType":5125,"count":84,"bufferView":5,"byteOffset":0},{"type":"SCALAR","componentType":5125,"count":84,"bufferView":5,"byteOffset":336},{"type":"SCALAR","componentType":5125,"count":84,"bufferView":5,"byteOffset":672},{"type":"SCALAR","componentType":5125,"count":84,"bufferView":5,"byteOffset":1008},{"type":"SCALAR","componentType":5125,"count":84,"bufferView":5,"byteOffset":1344}],"bufferViews":[{"buffer":0,"byteOffset":0,"byteLength":3136,"byteStride":56,"target":34962},{"buffer":0,"byteOffset":3136,"byteLength":3136,"byteStride":56,"target":34962},{"buffer":0,"byteOffset":6272,"byteLength":3136,"byteStride":56,"target":34962},{"buffer":0,"byteOffset":9408,"byteLength":3136,"byteStride":56,"target":34962},{"buffer":0,"byteOffset":12544,"byteLength":3136,"byteStride":56,"target":34962},{"buffer":0,"byteOffset":15680,"byteLength":1680,"target":34963}],"samplers":[{"magFilter":9729,"minFilter":9987,"wrapS":10497,"wrapT":10497}],"textures":[{"source":0,"sampler":0},{"source":1,"sampler":0},{"source":2,"sampler":0}],"images":[{"mimeType":"image/png","uri":"textures/Crystal_diffuse.png"},{"mimeType":"image/png","uri":"textures/Crystal_emissive.png"},{"mimeType":"image/png","uri":"textures/Crystal_normal.png"}],"buffers":[{"uri":"scene.bin","byteLength":17360}],"materials":[{"name":"Crystal","doubleSided":true,"pbrMetallicRoughness":{"roughnessFactor":0.8211145618000169,"metallicFactor":0,"baseColorTexture":{"index":0}},"emissiveFactor":[1,1,1],"emissiveTexture":{"index":1},"normalTexture":{"index":2},"extensions":{"KHR_materials_ior":{"ior":1000},"KHR_materials_specular":{"specularColorFactor":[0.05,0.05,0.05]}}}],"meshes":[{"name":"Crystal_Crystal_0","primitives":[{"attributes":{"NORMAL":1,"POSITION":0,"TANGENT":2,"TEXCOORD_0":3,"TEXCOORD_1":4},"mode":4,"material":0,"indices":25}]},{"name":"Crystal.001_Crystal_0","primitives":[{"attributes":{"NORMAL":6,"POSITION":5,"TANGENT":7,"TEXCOORD_0":8,"TEXCOORD_1":9},"mode":4,"material":0,"indices":26}]},{"name":"Crystal.002_Crystal_0","primitives":[{"attributes":{"NORMAL":11,"POSITION":10,"TANGENT":12,"TEXCOORD_0":13,"TEXCOORD_1":14},"mode":4,"material":0,"indices":27}]},{"name":"Crystal.003_Crystal_0","primitives":[{"attributes":{"NORMAL":16,"POSITION":15,"TANGENT":17,"TEXCOORD_0":18,"TEXCOORD_1":19},"mode":4,"material":0,"indices":28}]},{"name":"Crystal.004_Crystal_0","primitives":[{"attributes":{"NORMAL":21,"POSITION":20,"TANGENT":22,"TEXCOORD_0":23,"TEXCOORD_1":24},"mode":4,"material":0,"indices":29}]}],"nodes":[{"name":"Sketchfab_model","translation":[-2.7758121490478516,5.111848831176757,3.731883049011232],"rotation":[-0.7071067811865475,0,0,0.7071067811865476],"children":[1]},{"name":"e3948437856c47b88646b1d448d2aac6.fbx","rotation":[0.7071067811865475,0,0,0.7071067811865476],"children":[2]},{"name":"RootNode","children":[3,5,7,9,11]},{"name":"Crystal","translation":[28.662521362304688,0,23.243803024291992],"rotation":[0.20437357126796524,0.2597606482464829,-0.18864751361542714,0.9247529208369456],"children":[4]},{"name":"Crystal_Crystal_0","mesh":0},{"name":"Crystal.001","translation":[11.525822639465332,0,11.885454177856445],"rotation":[0.04495630025382582,0.797507100111063,0.3407284038811177,0.49584827430228773],"scale":[0.9232172966003418,0.9232172966003419,0.9232172966003418],"children":[6]},{"name":"Crystal.001_Crystal_0","mesh":1},{"name":"Crystal.002","translation":[-15.462398529052734,0,-6.002570629119873],"rotation":[-0.29303836488716817,0.9006020682620504,-0.10132848040585084,-0.3045931227145702],"scale":[0.8008584976196288,0.800858497619629,0.8008584380149841],"children":[8]},{"name":"Crystal.002_Crystal_0","mesh":2},{"name":"Crystal.003","translation":[-7.084455490112305,0,-2.4504892826080322],"rotation":[-0.33453193433897344,0.07694220548755915,-0.014000030812755212,0.9391337929493203],"scale":[0.6861795783042908,0.6861793398857117,0.6861793994903564],"children":[10]},{"name":"Crystal.003_Crystal_0","mesh":3},{"name":"Crystal.004","translation":[23.145051956176758,0,-5.644843101501465],"rotation":[0.09903686904886558,0.6856295915993998,-0.4075522446682374,0.594983133843405],"scale":[0.8008585572242736,0.800858497619629,0.800858497619629],"children":[12]},{"name":"Crystal.004_Crystal_0","mesh":4}],"scenes":[{"name":"Sketchfab_Scene","nodes":[0]}],"scene":0,"extensionsUsed":["KHR_materials_ior","KHR_materials_specular"]}