{"asset":{"generator":"glTF-Transform v3.5.1","version":"2.0"},"accessors":[{"type":"SCALAR","componentType":5123,"count":1248,"bufferView":0,"byteOffset":0},{"type":"SCALAR","componentType":5123,"count":1146,"bufferView":0,"byteOffset":2496},{"type":"SCALAR","componentType":5123,"count":864,"bufferView":0,"byteOffset":4788},{"type":"VEC3","componentType":5126,"count":210,"max":[0.0071498374454677105,0.0071498374454677105,0.038559895008802414],"min":[-0.0071498374454677105,-0.0071498374454677105,0.007156959734857082],"bufferView":1,"byteOffset":0},{"type":"VEC3","componentType":5126,"count":210,"bufferView":1,"byteOffset":12},{"type":"VEC3","componentType":5126,"count":288,"max":[0.007385680917650461,0.007385680917650461,0.03568907827138901],"min":[-0.007385680451989174,-0.007385680451989174,-0.00023755668371450156],"bufferView":2,"byteOffset":0},{"type":"VEC3","componentType":5126,"count":288,"bufferView":2,"byteOffset":12},{"type":"VEC3","componentType":5126,"count":240,"max":[0.011386913247406483,0.011386913247406483,0.0350860171020031],"min":[-0.011386913247406483,-0.011386913247406483,0.011300669983029366],"bufferView":3,"byteOffset":0},{"type":"VEC3","componentType":5126,"count":240,"bufferView":3,"byteOffset":12}],"bufferViews":[{"buffer":0,"byteOffset":0,"byteLength":6516,"target":34963},{"buffer":0,"byteOffset":6516,"byteLength":5040,"byteStride":24,"target":34962},{"buffer":0,"byteOffset":11556,"byteLength":6912,"byteStride":24,"target":34962},{"buffer":0,"byteOffset":18468,"byteLength":5760,"byteStride":24,"target":34962}],"buffers":[{"uri":"roller.bin","byteLength":24228}],"materials":[{"name":"Black","extras":{"fromFBX":{"shadingModel":"Phong","isTruePBR":false}},"pbrMetallicRoughness":{"baseColorFactor":[0.00510708568617702,0.0210209582000971,0.0417728833854198,1],"roughnessFactor":0.415087103843689,"metallicFactor":0.400000005960464}},{"name":"Metal","extras":{"fromFBX":{"shadingModel":"Phong","isTruePBR":false}},"pbrMetallicRoughness":{"baseColorFactor":[0.143086895346642,0.143086895346642,0.143086895346642,1],"roughnessFactor":0.415087103843689,"metallicFactor":0.400000005960464}},{"name":"DarkMetal","extras":{"fromFBX":{"shadingModel":"Phong","isTruePBR":false}},"pbrMetallicRoughness":{"baseColorFactor":[0.236550569534302,0.236550569534302,0.236550569534302,1],"roughnessFactor":0.415087103843689,"metallicFactor":0.400000005960464}}],"meshes":[{"name":"Hazard_Cylinder","primitives":[{"attributes":{"NORMAL":4,"POSITION":3},"mode":4,"material":0,"indices":0},{"attributes":{"NORMAL":6,"POSITION":5},"mode":4,"material":1,"indices":1},{"attributes":{"NORMAL":8,"POSITION":7},"mode":4,"material":2,"indices":2}]}],"nodes":[{"name":"RootNode","children":[1]},{"name":"Hazard_Cylinder","rotation":[-0.707106828689575,0,0,0.707106709480286],"scale":[100,100,100],"mesh":0}],"scenes":[{"name":"Root Scene","nodes":[0]}],"scene":0}