{
  "accessors": [
    {
      "bufferView": 2,
      "componentType": 5126,
      "count": 2772,
      "max": [
        275.5850524902344,
        833.1273193359375,
        253.8045654296875
      ],
      "min": [
        -247.75927734375,
        -19.369155883789063,
        -240.40927124023438
      ],
      "type": "VEC3"
    },
    {
      "bufferView": 2,
      "byteOffset": 33264,
      "componentType": 5126,
      "count": 2772,
      "max": [
        0.9995148777961731,
        0.9999126195907593,
        0.9998292922973633
      ],
      "min": [
        -0.9999239444732666,
        -1.0,
        -0.9996129274368286
      ],
      "type": "VEC3"
    },
    {
      "bufferView": 1,
      "componentType": 5126,
      "count": 2772,
      "max": [
        0.9732329845428467,
        0.9753188490867615
      ],
      "min": [
        0.0037073493003845215,
        0.0047623515129089355
      ],
      "type": "VEC2"
    },
    {
      "bufferView": 0,
      "componentType": 5125,
      "count": 6336,
      "type": "SCALAR"
    },
    {
      "bufferView": 2,
      "byteOffset": 66528,
      "componentType": 5126,
      "count": 54,
      "max": [
        142.1025390625,
        85.79705047607422,
        172.164306640625
      ],
      "min": [
        -173.14666748046875,
        -25.636098861694336,
        -191.84622192382813
      ],
      "type": "VEC3"
    },
    {
      "bufferView": 2,
      "byteOffset": 67176,
      "componentType": 5126,
      "count": 54,
      "max": [
        0.9277503490447998,
        0.9972707033157349,
        0.9317145943641663
      ],
      "min": [
        -0.9128216505050659,
        -1.0,
        -0.8876906037330627
      ],
      "type": "VEC3"
    },
    {
      "bufferView": 1,
      "byteOffset": 22176,
      "componentType": 5126,
      "count": 54,
      "max": [
        0.5506426692008972,
        0.9797928929328918
      ],
      "min": [
        0.07553330063819885,
        0.5593907237052917
      ],
      "type": "VEC2"
    },
    {
      "bufferView": 0,
      "byteOffset": 25344,
      "componentType": 5125,
      "count": 192,
      "type": "SCALAR"
    }
  ],
  "asset": {
    "extras": {
      "author": "Gintare S. (Amber) (https://sketchfab.com/g.amber.s)",
      "license": "CC-BY-4.0 (http://creativecommons.org/licenses/by/4.0/)",
      "source": "https://sketchfab.com/3d-models/crystal-free-3ef56acc57624c4990e51b3bdac1e024",
      "title": "Crystal - Free"
    },
    "generator": "Sketchfab-15.30.0",
    "version": "2.0"
  },
  "bufferViews": [
    {
      "buffer": 0,
      "byteLength": 26112,
      "name": "floatBufferViews",
      "target": 34963
    },
    {
      "buffer": 0,
      "byteLength": 22608,
      "byteOffset": 26112,
      "byteStride": 8,
      "name": "floatBufferViews",
      "target": 34962
    },
    {
      "buffer": 0,
      "byteLength": 67824,
      "byteOffset": 48720,
      "byteStride": 12,
      "name": "floatBufferViews",
      "target": 34962
    }
  ],
  "buffers": [
    {
      "byteLength": 116544,
      "uri": "scene.bin"
    }
  ],
  "images": [
    {
      "uri": "textures/Crystals_baseColor.png"
    }
  ],
  "materials": [
    {
      "doubleSided": true,
      "name": "Crystals",
      "pbrMetallicRoughness": {
        "baseColorTexture": {
          "index": 0
        },
        "metallicFactor": 0.0,
        "roughnessFactor": 0.8942628736559436
      }
    },
    {
      "doubleSided": true,
      "name": "CrystalBase",
      "pbrMetallicRoughness": {
        "baseColorTexture": {
          "index": 0
        },
        "metallicFactor": 0.0,
        "roughnessFactor": 0.6
      }
    }
  ],
  "meshes": [
    {
      "name": "PowerUP_Crystals_0",
      "primitives": [
        {
          "attributes": {
            "NORMAL": 1,
            "POSITION": 0,
            "TEXCOORD_0": 2
          },
          "indices": 3,
          "material": 0,
          "mode": 4
        }
      ]
    },
    {
      "name": "PowerUP_CrystalBase_0",
      "primitives": [
        {
          "attributes": {
            "NORMAL": 5,
            "POSITION": 4,
            "TEXCOORD_0": 6
          },
          "indices": 7,
          "material": 1,
          "mode": 4
        }
      ]
    }
  ],
  "nodes": [
    {
      "children": [
        1
      ],
      "matrix": [
        1.0,
        0.0,
        0.0,
        0.0,
        0.0,
        2.220446049250313e-16,
        -1.0,
        0.0,
        0.0,
        1.0,
        2.220446049250313e-16,
        0.0,
        0.0,
        0.0,
        0.0,
        1.0
      ],
      "name": "Sketchfab_model"
    },
    {
      "children": [
        2
      ],
      "matrix": [
        1.0,
        0.0,
        0.0,
        0.0,
        0.0,
        0.0,
        1.0,
        0.0,
        0.0,
        -1.0,
        0.0,
        0.0,
        0.0,
        0.0,
        0.0,
        1.0
      ],
      "name": "10dafbc1a9364ce78bc61c8923d39ec6.fbx"
    },
    {
      "children": [
        3
      ],
      "name": "RootNode"
    },
    {
      "children": [
        4,
        5
      ],
      "matrix": [
        0.009999999776482582,
        0.0,
        0.0,
        0.0,
        0.0,
        0.009999999776482582,
        0.0,
        0.0,
        0.0,
        0.0,
        0.009999999776482582,
        0.0,
        0.0,
        0.0,
        0.0,
        1.0
      ],
      "name": "PowerUP"
    },
    {
      "mesh": 0,
      "name": "PowerUP_Crystals_0"
    },
    {
      "mesh": 1,
      "name": "PowerUP_CrystalBase_0"
    }
  ],
  "samplers": [
    {
      "magFilter": 9729,
      "minFilter": 9987,
      "wrapS": 10497,
      "wrapT": 10497
    }
  ],
  "scene": 0,
  "scenes": [
    {
      "name": "Sketchfab_Scene",
      "nodes": [
        0
      ]
    }
  ],
  "textures": [
    {
      "sampler": 0,
      "source": 0
    }
  ]
}
